<svg class="svg-icon" style="width: 1em; height: 1em;vertical-align: middle;fill: currentColor;overflow: hidden;" viewBox="0 0 1024 1024" version="1.1" xmlns="http://www.w3.org/2000/svg"><path d="M947.84 468.8a1166.72 1166.72 0 0 0 26.24-136.64c-32-6.72-218.88-30.4 7.68-71.68 8.96-113.92 0-202.56-8-212.16C957.12 32 715.84 32 504.32 100.16a194.24 194.24 0 0 1 11.52 94.4c-8 80.64-51.2-41.92-91.52-64C156.8 248 86.08 496.64 186.24 678.72 298.24 538.56 656.96 141.76 768 213.44 570.24 358.4 393.6 568 260.16 773.76c-96 148.16-117.76 186.56-76.48 215.04 54.4 37.12 66.56-25.92 171.84-156.8 129.6 47.36 444.48 41.6 563.52-272-31.36-18.56-254.72-117.44 28.8-91.2z" fill="#231F20" /></svg>